<?xml version="1.0" encoding="UTF-8"?>
<svg width="25px" height="24px" viewBox="0 0 25 24" version="1.1" xmlns="http://www.w3.org/2000/svg" xmlns:xlink="http://www.w3.org/1999/xlink">
    <!-- Generator: Sketch 63.1 (92452) - https://sketch.com -->
    <title>icon_home_normal</title>
    <desc>Created with Sketch.</desc>
    <defs>
        <path d="M13.2167667,2.49270991 L20.258016,7.32831066 C21.3444031,8.07439049 21.993573,9.30772305 21.993573,10.6256274 L21.993573,19 C21.993573,20.6568542 20.6504273,22 18.993573,22 L4.99512574,22 C3.33827149,22 1.99512574,20.6568542 1.99512574,19 L1.99512574,10.6265088 C1.99512574,9.30882185 2.64408283,8.07566378 3.73017597,7.3295401 L10.7708962,2.49270991 C11.6151298,2.01736037 12.4059921,2.01736037 13.2167667,2.49270991 Z M14.497581,16 L9.49758104,16 C8.94529629,16 8.49758104,16.4477153 8.49758104,17 C8.49758104,17.5522847 8.94529629,18 9.49758104,18 L9.49758104,18 L14.497581,18 C15.0498658,18 15.497581,17.5522847 15.497581,17 C15.497581,16.4477153 15.0498658,16 14.497581,16 L14.497581,16 Z" id="path-1"></path>
    </defs>
    <g id="控件" stroke="none" stroke-width="1" fill="none" fill-rule="evenodd">
        <g id="图标/首页/未选中" transform="translate(-2.000000, -1.000000)">
            <g id="首页" transform="translate(0.000000, 1.000000)">
                <g id="编组" transform="translate(2.002419, 0.000000)">
                    <mask id="mask-2" fill="white">
                        <use xlink:href="#path-1"></use>
                    </mask>
                    <use id="a" fill="#919AAB" xlink:href="#path-1"></use>
                </g>
            </g>
        </g>
    </g>
</svg>