<?xml version="1.0" encoding="UTF-8"?>
<svg width="25px" height="24px" viewBox="0 0 25 24" version="1.1" xmlns="http://www.w3.org/2000/svg" xmlns:xlink="http://www.w3.org/1999/xlink">
    <!-- Generator: Sketch 63.1 (92452) - https://sketch.com -->
    <title>icon_shequ_normal</title>
    <desc>Created with Sketch.</desc>
    <g id="控件" stroke="none" stroke-width="1" fill="none" fill-rule="evenodd">
        <g id="图标/社区/未选中" transform="translate(-2.000000, -1.000000)" fill="#919AAB">
            <g id="搜索" transform="translate(0.000000, 1.000000)">
                <path d="M14,2 C19.5228475,2 24,6.4771525 24,12 C24,15.2717434 22.42879,18.176511 19.9997601,20.0009125 L23,20 C23.5522847,20 24,20.4477153 24,21 C24,21.5522847 23.5522847,22 23,22 L14,22 C8.4771525,22 4,17.5228475 4,12 C4,6.4771525 8.4771525,2 14,2 Z M14,15 C12.8954305,15 12,15.8954305 12,17 C12,18.1045695 12.8954305,19 14,19 C15.1045695,19 16,18.1045695 16,17 C16,15.8954305 15.1045695,15 14,15 Z M19,10 C17.8954305,10 17,10.8954305 17,12 C17,13.1045695 17.8954305,14 19,14 C20.1045695,14 21,13.1045695 21,12 C21,10.8954305 20.1045695,10 19,10 Z M9,10 C7.8954305,10 7,10.8954305 7,12 C7,13.1045695 7.8954305,14 9,14 C10.1045695,14 11,13.1045695 11,12 C11,10.8954305 10.1045695,10 9,10 Z M14,11 C13.4477153,11 13,11.4477153 13,12 C13,12.5522847 13.4477153,13 14,13 C14.5522847,13 15,12.5522847 15,12 C15,11.4477153 14.5522847,11 14,11 Z M14,5 C12.8954305,5 12,5.8954305 12,7 C12,8.1045695 12.8954305,9 14,9 C15.1045695,9 16,8.1045695 16,7 C16,5.8954305 15.1045695,5 14,5 Z" id="a"></path>
            </g>
        </g>
    </g>
</svg>