<?xml version="1.0" encoding="UTF-8"?>
<svg width="25px" height="24px" viewBox="0 0 25 24" version="1.1" xmlns="http://www.w3.org/2000/svg" xmlns:xlink="http://www.w3.org/1999/xlink">
    <!-- Generator: Sketch 63.1 (92452) - https://sketch.com -->
    <title>icon_shequ_press</title>
    <desc>Created with Sketch.</desc>
    <defs>
        <linearGradient x1="0%" y1="0%" x2="100%" y2="100%" id="linearGradient-1">
            <stop stop-color="#9FFF9F" offset="0%"></stop>
            <stop stop-color="#02BE02" offset="100%"></stop>
        </linearGradient>
    </defs>
    <g id="控件" stroke="none" stroke-width="1" fill="none" fill-rule="evenodd">
        <g id="图标/社区/选中" transform="translate(-2.000000, -1.000000)" fill="url(#linearGradient-1)">
            <g id="搜索" transform="translate(0.000000, 1.000000)">
                <g id="a" transform="translate(4.000000, 2.000000)">
                    <path d="M10,0 C15.5228475,0 20,4.4771525 20,10 C20,13.2717434 18.42879,16.176511 15.9997601,18.0009125 L19,18 C19.5522847,18 20,18.4477153 20,19 C20,19.5522847 19.5522847,20 19,20 L10,20 C4.4771525,20 0,15.5228475 0,10 C0,4.4771525 4.4771525,0 10,0 Z M10,13 C8.8954305,13 8,13.8954305 8,15 C8,16.1045695 8.8954305,17 10,17 C11.1045695,17 12,16.1045695 12,15 C12,13.8954305 11.1045695,13 10,13 Z M15,8 C13.8954305,8 13,8.8954305 13,10 C13,11.1045695 13.8954305,12 15,12 C16.1045695,12 17,11.1045695 17,10 C17,8.8954305 16.1045695,8 15,8 Z M5,8 C3.8954305,8 3,8.8954305 3,10 C3,11.1045695 3.8954305,12 5,12 C6.1045695,12 7,11.1045695 7,10 C7,8.8954305 6.1045695,8 5,8 Z M10,9 C9.44771525,9 9,9.44771525 9,10 C9,10.5522847 9.44771525,11 10,11 C10.5522847,11 11,10.5522847 11,10 C11,9.44771525 10.5522847,9 10,9 Z M10,3 C8.8954305,3 8,3.8954305 8,5 C8,6.1045695 8.8954305,7 10,7 C11.1045695,7 12,6.1045695 12,5 C12,3.8954305 11.1045695,3 10,3 Z"></path>
                </g>
            </g>
        </g>
    </g>
</svg>