<?xml version="1.0" encoding="UTF-8"?>
<svg width="24px" height="24px" viewBox="0 0 24 24" version="1.1" xmlns="http://www.w3.org/2000/svg" xmlns:xlink="http://www.w3.org/1999/xlink">
    <!-- Generator: Sketch 63.1 (92452) - https://sketch.com -->
    <title>icon_home_press</title>
    <desc>Created with Sketch.</desc>
    <defs>
        <linearGradient x1="0%" y1="0.671010855%" x2="100%" y2="99.3289891%" id="linearGradient-1">
            <stop stop-color="#9FFF9F" offset="0%"></stop>
            <stop stop-color="#02BE02" offset="100%"></stop>
        </linearGradient>
        <path d="M11.2216409,0.356512151 L18.2628902,5.1921129 C19.3492773,5.93819274 19.9984473,7.1715253 19.9984473,8.48942969 L19.9984473,16.8638022 C19.9984473,18.5206565 18.6553015,19.8638022 16.9984473,19.8638022 L3,19.8638022 C1.34314575,19.8638022 -5.44331395e-14,18.5206565 -5.68434189e-14,16.8638022 L-5.68434189e-14,8.49031103 C-5.74488782e-14,7.17262409 0.648957083,5.93946603 1.73505022,5.19334234 L8.77577043,0.356512151 C9.62000405,-0.118837384 10.4108664,-0.118837384 11.2216409,0.356512151 Z M12.5024553,13.8638022 L7.50245529,13.8638022 C6.95017054,13.8638022 6.50245529,14.3115175 6.50245529,14.8638022 C6.50245529,15.416087 6.95017054,15.8638022 7.50245529,15.8638022 L7.50245529,15.8638022 L12.5024553,15.8638022 C13.05474,15.8638022 13.5024553,15.416087 13.5024553,14.8638022 C13.5024553,14.3115175 13.05474,13.8638022 12.5024553,13.8638022 L12.5024553,13.8638022 Z" id="path-2"></path>
    </defs>
    <g id="控件" stroke="none" stroke-width="1" fill="none" fill-rule="evenodd">
        <g id="图标/首页/选中" transform="translate(-2.000000, -1.000000)">
            <g id="首页" transform="translate(0.000000, 1.000000)">
                <g id="编组" transform="translate(2.000000, 0.000000)">
                    <g id="a" transform="translate(1.997545, 2.136198)">
                        <mask id="mask-3" fill="white">
                            <use xlink:href="#path-2"></use>
                        </mask>
                        <use fill="url(#linearGradient-1)" xlink:href="#path-2"></use>
                    </g>
                </g>
            </g>
        </g>
    </g>
</svg>