<?xml version="1.0" encoding="UTF-8"?>
<svg width="24px" height="24px" viewBox="0 0 24 24" version="1.1" xmlns="http://www.w3.org/2000/svg" xmlns:xlink="http://www.w3.org/1999/xlink">
    <!-- Generator: Sketch 63.1 (92452) - https://sketch.com -->
    <title>icon_wd_press</title>
    <desc>Created with Sketch.</desc>
    <defs>
        <linearGradient x1="0%" y1="0%" x2="100%" y2="100%" id="linearGradient-1">
            <stop stop-color="#9FFF9F" offset="0%"></stop>
            <stop stop-color="#02BE02" offset="100%"></stop>
        </linearGradient>
    </defs>
    <g id="控件" stroke="none" stroke-width="1" fill="none" fill-rule="evenodd">
        <g id="图标/我的/选中" transform="translate(-2.000000, -1.000000)" fill="url(#linearGradient-1)">
            <g id="私聊" transform="translate(0.000000, 1.000000)">
                <g id="编组" transform="translate(2.000000, 0.000000)">
                    <path d="M17,20 C17.5522847,20 18,20.4477153 18,21 C18,21.5522847 17.5522847,22 17,22 L7,22 C6.44771525,22 6,21.5522847 6,21 C6,20.4477153 6.44771525,20 7,20 L17,20 Z M18,2 C20.209139,2 22,3.790861 22,6 L22,14 C22,16.209139 20.209139,18 18,18 L6,18 C3.790861,18 2,16.209139 2,14 L2,6 C2,3.790861 3.790861,2 6,2 L18,2 Z M15.8422684,11.9275039 C15.4986174,11.6962533 15.0325675,11.787372 14.801317,12.131023 C14.0831037,13.1983274 13.1515113,13.75 11.9957023,13.75 C10.8655071,13.75 9.93162663,13.2060795 9.21519241,12.1665747 C8.98013326,11.8255174 8.51309861,11.739589 8.17204133,11.9746481 C7.83098405,12.2097073 7.74505559,12.6767419 7.98011474,13.0177992 C8.9638622,14.4451601 10.3457264,15.25 11.9957023,15.25 C13.678338,15.25 15.0617741,14.4307535 16.0457875,12.9684554 C16.2770381,12.6248043 16.1859195,12.1587545 15.8422684,11.9275039 Z" id="a"></path>
                </g>
            </g>
        </g>
    </g>
</svg>