<?xml version="1.0" encoding="UTF-8"?>
<svg width="24px" height="24px" viewBox="0 0 24 24" version="1.1" xmlns="http://www.w3.org/2000/svg" xmlns:xlink="http://www.w3.org/1999/xlink">
    <!-- Generator: Sketch 63.1 (92452) - https://sketch.com -->
    <title>icon_lt_press</title>
    <desc>Created with Sketch.</desc>
    <defs>
        <linearGradient x1="8.61178429%" y1="0%" x2="91.3882157%" y2="100%" id="linearGradient-1">
            <stop stop-color="#9FFF9F" offset="0%"></stop>
            <stop stop-color="#02BE02" offset="100%"></stop>
        </linearGradient>
    </defs>
    <g id="控件" stroke="none" stroke-width="1" fill="none" fill-rule="evenodd">
        <g id="图标/聊天/选中" transform="translate(-2.000000, -1.000000)" fill="url(#linearGradient-1)">
            <g id="私聊" transform="translate(0.000000, 1.000000)">
                <g id="编组" transform="translate(2.000000, 0.000000)">
                    <path d="M16.6216948,11.5 C17.4515739,11.5 18.1952371,12.0124975 18.4906702,12.7880093 L20.9668607,19.2880093 C21.3600823,20.320216 20.8420825,21.4757539 19.8098759,21.8689755 C19.582492,21.9555979 19.3412098,22 19.0978852,22 L4.90211477,22 C3.79754527,22 2.90211477,21.1045695 2.90211477,20 C2.90211477,19.7566754 2.94651688,19.5153932 3.0331393,19.2880093 L5.50932977,12.7880093 C5.80476286,12.0124975 6.54842613,11.5 7.37830524,11.5 L16.6216948,11.5 Z M12.2314872,15 L11.7685128,15 C11.6374859,15 11.5244189,15.0844463 11.4841574,15.2042497 L11.4703477,15.2668705 L11.0265381,19.2611574 C11.0131191,19.3819277 11.0442007,19.5023394 11.1121608,19.6006639 L11.1699265,19.6699265 L12,20.5 L12.8300735,19.6699265 C12.9159965,19.5840035 12.9669464,19.4705613 12.9753014,19.3513284 L12.9734619,19.2611574 L12.5296523,15.2668705 C12.5127712,15.1149407 12.3843519,15 12.2314872,15 Z M12.7225148,13 L11.2774852,13 C11.2559888,13 11.2346329,13.0034656 11.2142396,13.0102633 C11.1269157,13.0393713 11.073034,13.1228782 11.0777129,13.2105468 L11.0877485,13.2632456 L11.4544152,14.3632456 C11.4761934,14.4285803 11.5294629,14.4769023 11.5939756,14.4936177 L11.6441518,14.5 L12.3558482,14.5 C12.424717,14.5 12.4874046,14.4647449 12.5236629,14.4088287 L12.5455848,14.3632456 L12.9122515,13.2632456 C12.9190492,13.2428523 12.9225148,13.2214964 12.9225148,13.2 C12.9225148,13.0895431 12.8329718,13 12.7225148,13 Z M12,2 C14.209139,2 16,3.790861 16,6 C16,8.209139 14.209139,10 12,10 C9.790861,10 8,8.209139 8,6 C8,3.790861 9.790861,2 12,2 Z" id="a"></path>
                </g>
            </g>
        </g>
    </g>
</svg>