<?xml version="1.0" encoding="UTF-8"?>
<svg width="375px" height="200px" viewBox="0 0 375 200" version="1.1" xmlns="http://www.w3.org/2000/svg" xmlns:xlink="http://www.w3.org/1999/xlink">
    <title>编组</title>
    <defs>
        <linearGradient x1="50%" y1="33.6347541%" x2="50%" y2="100%" id="linearGradient-1">
            <stop stop-color="#02BE02" offset="0%"></stop>
            <stop stop-color="#008F00" offset="100%"></stop>
        </linearGradient>
        <linearGradient x1="50%" y1="33.6347541%" x2="50%" y2="100%" id="linearGradient-2">
            <stop stop-color="#02BE02" offset="0%"></stop>
            <stop stop-color="#008F00" offset="100%"></stop>
        </linearGradient>
    </defs>
    <g id="页面-1" stroke="none" stroke-width="1" fill="none" fill-rule="evenodd">
        <g id="编组" transform="translate(-0.004230, 0.000000)">
            <path d="M374.994256,0 L375,192.131988 L371.425326,192.468415 C370.825927,192.523959 370.224727,192.579239 369.621738,192.634252 L365.98243,192.961131 C365.372333,193.015075 364.760471,193.068751 364.146857,193.122155 L360.444238,193.439328 L356.700148,193.749943 L352.915174,194.053928 L349.089904,194.351214 C348.449034,194.4002 347.806509,194.448904 347.162342,194.497323 L343.277732,194.784429 L339.354297,195.06466 C338.697188,195.110788 338.038486,195.156627 337.378203,195.202175 L333.397633,195.471962 C332.731075,195.516341 332.062961,195.560426 331.393303,195.604216 L327.35692,195.8634 L323.284065,196.115428 L319.175325,196.36023 L315.031288,196.597735 L310.852543,196.827873 C310.153226,196.865612 309.452487,196.90304 308.750339,196.940157 L304.520634,197.159113 L300.25769,197.370526 L295.962097,197.574326 L291.634442,197.770443 L287.275313,197.958806 C286.546202,197.989549 285.815803,198.019967 285.08413,198.050057 L280.678893,198.226658 L276.243652,198.395329 L271.778997,198.556001 L267.285513,198.708602 L262.763791,198.853064 L258.214418,198.989314 L253.637982,199.117284 C252.87302,199.137918 252.106955,199.158205 251.339799,199.178141 L246.723871,199.293558 C245.9524,199.312091 245.179864,199.330272 244.406273,199.3481 L239.752177,199.450805 L235.07337,199.544948 L230.370441,199.630459 L225.643977,199.707267 L220.894568,199.775302 C220.10112,199.785906 219.306741,199.796142 218.511442,199.806008 L213.728716,199.860752 L208.924515,199.906547 C208.122057,199.91343 207.31873,199.919937 206.514544,199.926067 L201.679231,199.958307 C200.871663,199.962922 200.06326,199.967157 199.254036,199.97101 L194.388936,199.989537 C193.576476,199.991858 192.763219,199.993794 191.949178,199.995344 L187.055613,200 L182.133626,199.99529 L177.230691,199.981207 L172.347408,199.957822 L167.484373,199.925208 L162.642187,199.883436 C161.836926,199.875715 161.03256,199.867615 160.229099,199.859138 L155.419306,199.803763 L150.631858,199.739408 L145.867352,199.666145 L141.126386,199.584046 L136.40956,199.493183 L131.717472,199.393626 L127.05072,199.285447 C126.275073,199.266703 125.500506,199.247602 124.727032,199.228147 L120.099407,199.10717 L115.498613,198.97775 L110.925251,198.839959 L106.379918,198.693868 L101.863212,198.539548 L97.3757321,198.377072 L92.918077,198.206511 C92.1776531,198.177414 91.4384968,198.147984 90.7006206,198.118221 L86.2888244,197.935666 L81.9083487,197.745204 C81.1809128,197.712806 80.4548067,197.680081 79.7300432,197.647031 L75.3976706,197.444844 L71.0981147,197.23493 C70.3842901,197.199304 69.6718577,197.163359 68.9608301,197.127097 L64.7116215,196.905726 C64.0062628,196.868199 63.3023338,196.830358 62.5998471,196.792205 L58.4023321,196.559537 L54.2400277,196.319428 L50.1135323,196.071949 L46.0234443,195.817171 L41.9703621,195.555167 L37.9548842,195.286007 L33.9776091,195.009764 C33.3179467,194.963137 32.6599011,194.916218 32.0034846,194.869009 L28.0846357,194.582274 L24.2054856,194.288634 L20.3666329,193.988161 L16.5686759,193.680926 L12.812213,193.367001 L9.09784287,193.046457 L5.42616377,192.719366 L1.7977742,192.385799 C1.19668331,192.329669 0.59742109,192.273272 0,192.216609 L0.00592866383,0 L374.994256,0 Z" id="路径" fill="url(#linearGradient-1)"></path>
            <path d="M18.0042295,118 C51.1413145,118 78.0042295,144.862915 78.0042295,178 C78.0042295,184.794323 76.8749098,191.32488 74.7937405,197.414199 L71.0981147,197.23493 C70.3842901,197.199304 69.6718577,197.163359 68.9608301,197.127097 L64.7116215,196.905726 C64.0062628,196.868199 63.3023338,196.830358 62.5998471,196.792205 L58.4023321,196.559537 L54.2400277,196.319428 L50.1135323,196.071949 L46.0234443,195.817171 L41.9703621,195.555167 L37.9548842,195.286007 L33.9776091,195.009764 C33.3179467,194.963137 32.6599011,194.916218 32.0034846,194.869009 L28.0846357,194.582274 L24.2054856,194.288634 L20.3666329,193.988161 L16.5686759,193.680926 L12.812213,193.367001 L9.09784287,193.046457 L5.42616377,192.719366 L1.7977742,192.385799 C1.19668331,192.329669 0.59742109,192.273272 -5.68434189e-14,192.216609 L0.002,120.746 L0.777865775,120.509594 C6.23417975,118.877016 12.0167856,118 18.0042295,118 Z" id="形状结合" fill="url(#linearGradient-2)" opacity="0.603656587"></path>
            <circle id="椭圆形" fill="#02BE02" opacity="0.321985881" cx="330.00423" cy="133" r="15"></circle>
            <circle id="椭圆形备份" fill="#02BE02" opacity="0.45" cx="118.00423" cy="62" r="56"></circle>
            <path d="M375.004322,77.7392446 L375.004322,158.260755 C357.655341,153.09749 345.00423,137.026158 345.00423,118 C345.00423,98.9738425 357.655341,82.9025103 375.004322,77.7392446 Z" id="形状结合" fill="#02BE02" opacity="0.6"></path>
        </g>
    </g>
</svg>