<?xml version="1.0" encoding="UTF-8"?>
<svg width="24px" height="24px" viewBox="0 0 24 24" version="1.1" xmlns="http://www.w3.org/2000/svg" xmlns:xlink="http://www.w3.org/1999/xlink">
    <!-- Generator: Sketch 63.1 (92452) - https://sketch.com -->
    <title>ic_kefu</title>
    <desc>Created with Sketch.</desc>
    <g id="页面-1" stroke="none" stroke-width="1" fill="none" fill-rule="evenodd">
        <g id="我的" transform="translate(-291.000000, -54.000000)" fill="#FFFFFF">
            <g id="导航栏" transform="translate(0.000000, 44.000000)">
                <g id="客服" transform="translate(291.000000, 10.000000)">
                    <g id="a" transform="translate(2.000000, 3.000000)">
                        <path d="M10,-0.75 C14.8324916,-0.75 18.75,3.16750844 18.75,8 C18.75,8.41421356 18.4142136,8.75 18,8.75 C17.5857864,8.75 17.25,8.41421356 17.25,8 C17.25,3.99593556 14.0040644,0.75 10,0.75 C5.99593556,0.75 2.75,3.99593556 2.75,8 C2.75,8.41421356 2.41421356,8.75 2,8.75 C1.58578644,8.75 1.25,8.41421356 1.25,8 C1.25,3.16750844 5.16750844,-0.75 10,-0.75 Z" fill-rule="nonzero"></path>
                        <g opacity="0.800000012" transform="translate(7.000000, 10.000000)">
                            <path d="M3,-0.75 C7.83249156,-0.75 11.75,3.16750844 11.75,8 C11.75,8.41421356 11.4142136,8.75 11,8.75 C10.5857864,8.75 10.25,8.41421356 10.25,8 C10.25,3.99593556 7.00406444,0.75 3,0.75 C2.58578644,0.75 2.25,0.414213562 2.25,0 C2.25,-0.414213562 2.58578644,-0.75 3,-0.75 Z" fill-rule="nonzero" transform="translate(7.000000, 4.000000) scale(1, -1) translate(-7.000000, -4.000000) "></path>
                            <ellipse cx="2.5" cy="8" rx="2.5" ry="1.5"></ellipse>
                        </g>
                        <path d="M0,9.5 C0,7.90231912 1.24891996,6.59633912 2.82372721,6.50509269 C2.91830799,6.50236016 2.99719601,6.57681788 2.99992854,6.67139865 C2.99997618,6.67304745 3,6.67469685 3,6.67634634 L3,12.3609223 C3.00000634,12.4359848 2.9391561,12.4968351 2.86409353,12.4968351 C2.86198025,12.4968351 2.85986726,12.4967858 2.85775628,12.4966872 C2.85775628,12.4966872 2.85775628,12.4966872 2.85775628,12.4966872 C1.26694946,12.4224315 0,11.1091717 0,9.5 Z"></path>
                        <path d="M17,9.5 C17,7.90231912 18.24892,6.59633912 19.8237272,6.50509269 C19.918308,6.50236016 19.997196,6.57681788 19.9999285,6.67139865 C19.9999762,6.67304745 20,6.67469685 20,6.67634634 L20,12.3609223 C20.0000063,12.4359848 19.9391561,12.4968351 19.8640935,12.4968351 C19.8619803,12.4968351 19.8598673,12.4967858 19.8577563,12.4966872 C19.8577563,12.4966872 19.8577563,12.4966872 19.8577563,12.4966872 C18.2669495,12.4224315 17,11.1091717 17,9.5 Z" transform="translate(18.500000, 9.500000) scale(-1, 1) translate(-18.500000, -9.500000) "></path>
                    </g>
                </g>
            </g>
        </g>
    </g>
</svg>