<?xml version="1.0" encoding="UTF-8"?>
<svg width="24px" height="24px" viewBox="0 0 24 24" version="1.1" xmlns="http://www.w3.org/2000/svg" xmlns:xlink="http://www.w3.org/1999/xlink">
    <!-- Generator: Sketch 63.1 (92452) - https://sketch.com -->
    <title>ic_xinxi1</title>
    <desc>Created with Sketch.</desc>
    <g id="页面-1" stroke="none" stroke-width="1" fill="none" fill-rule="evenodd">
        <g id="我的" transform="translate(-335.000000, -54.000000)">
            <g id="导航栏" transform="translate(0.000000, 44.000000)">
                <g id="信息" transform="translate(335.000000, 10.000000)">
                    <g id="a" transform="translate(2.000000, 0.500000)">
                        <path d="M15,3.5 C15,4.03720704 15.1210295,4.54614613 15.3373087,5.00103753 L2,5 C1.75454011,5 1.55039163,5.17687516 1.50805567,5.41012437 L1.5,5.5 L1.5,17.5 C1.5,17.7454599 1.67687516,17.9496084 1.91012437,17.9919443 L2,18 L18,18 C18.2454599,18 18.4496084,17.8231248 18.4919443,17.5898756 L18.5,17.5 L18.5,7 L18.5,7 C19.037207,7 19.5461461,6.87897053 20.0010375,6.66269133 L20,17.5 C20,18.6045695 19.1045695,19.5 18,19.5 L2,19.5 C0.8954305,19.5 0,18.6045695 0,17.5 L0,5.5 C0,4.3954305 0.8954305,3.5 2,3.5 L15,3.5 L15,3.5 Z" fill="#FFFFFF" fill-rule="nonzero"></path>
                        <circle fill="#F92770" cx="18.5" cy="3.5" r="2.5"></circle>
                        <path d="M5.47279253,2.99464848 C5.8334824,2.87602431 6.21972062,3.04601923 6.38126612,3.37825517 L6.41956508,3.47279253 L8.069,9.93 L14.5272075,11.5804349 C14.8878973,11.6990591 15.0978351,12.0651252 15.0306427,12.4283921 L15.0053515,12.5272075 C14.8867273,12.8878973 14.5206613,13.0978351 14.1573944,13.0306427 L14.058579,13.0053515 L7.24055948,11.2375846 C7.04661869,11.1738011 6.8885299,11.0343062 6.8004583,10.8532651 L6.76241543,10.7594405 L4.99464848,3.94142103 C4.86524029,3.54794118 5.07931267,3.12405667 5.47279253,2.99464848 Z" fill="#FFFFFF" fill-rule="nonzero" transform="translate(10.000000, 8.000000) rotate(-45.000000) translate(-10.000000, -8.000000) "></path>
                    </g>
                </g>
            </g>
        </g>
    </g>
</svg>