<?xml version="1.0" encoding="UTF-8"?>
<svg width="18px" height="18px" viewBox="0 0 18 18" version="1.1" xmlns="http://www.w3.org/2000/svg" xmlns:xlink="http://www.w3.org/1999/xlink">
    <!-- Generator: Sketch 63.1 (92452) - https://sketch.com -->
    <title>ic_ss</title>
    <desc>Created with Sketch.</desc>
    <g id="页面-1" stroke="none" stroke-width="1" fill="none" fill-rule="evenodd">
        <g id="首页" transform="translate(-329.000000, -56.000000)" fill="#02BE02" fill-rule="nonzero">
            <g id="导航栏备份" transform="translate(0.000000, 43.500000)">
                <g id="编组-4" transform="translate(59.000000, 7.500000)">
                    <g id="搜索" transform="translate(270.000000, 5.000000)">
                        <path d="M7.5,1.5 C10.8137085,1.5 13.5,4.1862915 13.5,7.5 C13.5,10.8137085 10.8137085,13.5 7.5,13.5 C4.1862915,13.5 1.5,10.8137085 1.5,7.5 C1.5,4.1862915 4.1862915,1.5 7.5,1.5 Z M7.5,3 C5.01471863,3 3,5.01471863 3,7.5 C3,9.98528137 5.01471863,12 7.5,12 C9.98528137,12 12,9.98528137 12,7.5 C12,5.01471863 9.98528137,3 7.5,3 Z" id="a"></path>
                        <path d="M13.5052038,10.0052038 C13.9194174,10.0052038 14.2552038,10.3409903 14.2552038,10.7552038 L14.2552038,16.2552038 C14.2552038,16.6694174 13.9194174,17.0052038 13.5052038,17.0052038 C13.0909903,17.0052038 12.7552038,16.6694174 12.7552038,16.2552038 L12.7552038,10.7552038 C12.7552038,10.3409903 13.0909903,10.0052038 13.5052038,10.0052038 Z" id="a" transform="translate(13.505204, 13.505204) rotate(-45.000000) translate(-13.505204, -13.505204) "></path>
                    </g>
                </g>
            </g>
        </g>
    </g>
</svg>